<svg width="64" height="64" xmlns="http://www.w3.org/2000/svg">

 <title/>
 <g>
  <title>background</title>
  <rect fill="none" id="canvas_background" height="402" width="582" y="-1" x="-1"/>
 </g>
 <g>
  <title>Layer 1</title>
  <path fill="#ff8d23" id="svg_1" d="m15,36a17,17 0 0 1 34,0" class="cls-1"/>
  <line stroke="#ff8d23" stroke-width="3px" stroke-miterlimit="10" stroke-linecap="round" fill="none" id="svg_2" y2="15" y1="9" x2="32" x1="32" class="cls-2"/>
  <line stroke="#ff8d23" stroke-width="3px" stroke-miterlimit="10" stroke-linecap="round" fill="none" id="svg_3" y2="36" y1="36" x2="53" x1="59" class="cls-2"/>
  <line stroke="#ff8d23" stroke-width="3px" stroke-miterlimit="10" stroke-linecap="round" fill="none" id="svg_4" y2="36" y1="36" x2="5" x1="11" class="cls-2"/>
  <line stroke="#ff8d23" stroke-width="3px" stroke-miterlimit="10" stroke-linecap="round" fill="none" id="svg_5" y2="21.15" y1="16.91" x2="46.85" x1="51.09" class="cls-2"/>
  <line fill-opacity="0" stroke="#ff8d23" stroke-width="3px" stroke-miterlimit="10" stroke-linecap="round" fill="none" id="svg_6" y2="16.91" y1="21.15" x2="12.91" x1="17.15" class="cls-2"/>
  <line stroke="#0baeff" stroke-width="3px" stroke-miterlimit="10" stroke-linecap="round" fill="none" id="svg_7" y2="37.5" y1="37.5" x2="58.5" x1="5.5" class="cls-3"/>
  <line stroke="#0baeff" stroke-width="3px" stroke-miterlimit="10" stroke-linecap="round" fill="none" id="svg_8" y2="43.5" y1="43.5" x2="54.5" x1="41.5" class="cls-3"/>
  <line stroke="#0baeff" stroke-width="3px" stroke-miterlimit="10" stroke-linecap="round" fill="none" id="svg_9" y2="43.5" y1="43.5" x2="22.5" x1="9.5" class="cls-3"/>
  <line stroke="#ff8d23" stroke-width="3px" stroke-miterlimit="10" stroke-linecap="round" fill="none" id="svg_10" y2="41.347947" y1="53.347947" x2="32.265784" x1="32.265784" class="cls-2"/>
  <polyline transform="rotate(179.09671020507812 32.2657814025879,52.03037643432618) " stroke="#ff8d23" stroke-width="3px" stroke-miterlimit="10" stroke-linecap="round" fill="none" id="svg_11" points="36.50578457117081,54.15037989616394 32.26578289270401,49.91037440299988 28.025783121585846,54.15037989616394 " class="cls-2"/>
 </g>
</svg>