<svg width="20" height="23" xmlns="http://www.w3.org/2000/svg">

 <g>
  <title>background</title>
  <rect fill="none" id="canvas_background" height="25" width="22" y="-1" x="-1"/>
 </g>
 <g>
  <title>Layer 1</title>
  <path fill="#2f6ba8" id="svg_2" d="m10,12.6l0,-9.6c0,-2.2 -1.8,-4 -4,-4s-4,1.8 -4,4l0,9.6c-1.2,1.1 -2,2.7 -2,4.4c0,3.3 2.7,6 6,6s6,-2.7 6,-6c0,-1.8 -0.8,-3.3 -2,-4.4zm-4,8.4c-2.2,0 -4,-1.8 -4,-4c0,-1.5 0.8,-2.8 2,-3.4l0,-2.6l2,0l0,-1l-2,0l0,-2l2,0l0,-1l-2,0l0,-2l2,0l0,-1l-2,0l0,-1c0,-1.1 0.9,-2 2,-2s2,0.9 2,2l0,10.6c1.2,0.7 2,2 2,3.4c0,2.2 -1.8,4 -4,4z"/>
  <path fill="#2f6ba8" id="svg_3" d="m6,14l0,1c1.1,0 2,0.9 2,2l1,0c0,-1.7 -1.3,-3 -3,-3z"/>
  <path fill="#2f6ba8" id="svg_4" d="m17.215414,8.753856l0,-7l-4,0l0,7l-3,0l5,5l5,-5l-3,0zm-4.6,1l1.6,0l0,-7l2,0l0,7l1.6,0l-2.6,2.6l-2.6,-2.6z"/>
 </g>
</svg>